<svg id="svg-source" height="0" version="1.1" 
  xmlns="http://www.w3.org/2000/svg" style="position:absolute; margin-left: -100%" 
  xmlns:xlink="http://www.w3.org/1999/xlink">
  <g id="shopping-cart" data-iconmelon="e-commerce icons:002d682c4fcf689621a3aaee07352d34">
    <path d="M31.769,8.092c-0.186-0.308-0.568-0.674-1.333-0.674H9.131L8.096,5.185c-0.062-0.153-0.145-0.303-0.27-0.469
	C7.754,4.619,7.674,4.53,7.543,4.413c-0.085-0.074-0.174-0.142-0.269-0.2L7.223,4.184C7.127,4.129,7.028,4.08,6.926,4.042
	L6.858,4.02c-0.1-0.033-0.201-0.062-0.306-0.079L6.407,3.924C6.343,3.915,6.278,3.908,6.212,3.908h-4.18C0.912,3.908,0,4.819,0,5.94
	s0.912,2.033,2.032,2.033h2.876l1.162,2.512c0.284,0.831,0.683,1.548,0.685,1.548l2.871,6.445c0.024,0.052,0.052,0.1,0.093,0.163
	l0.535,1.14c0.206,0.673,0.74,1.183,1.396,1.37l-0.006,0.088h13.949l0.639-0.012l-0.008-0.08c0.649-0.19,1.177-0.698,1.382-1.366
	l3.487-7.725C31.331,11.603,32.486,9.281,31.769,8.092z M30.056,11.54l-3.309,7.346l-0.092-0.023l-0.148,0.549
	c-0.104,0.388-0.456,0.659-0.893,0.659c-0.002,0-0.004-0.001-0.006-0.001l-0.659-0.02l0.002,0.031H12.837l-0.624-0.009
	c-0.402,0-0.756-0.271-0.861-0.66l-0.15-0.549l-0.089,0.022l-3.329-7.383c-0.003-0.006-0.377-0.677-0.626-1.418l-1.509-3.27H2.032
	c-0.482,0-0.875-0.392-0.875-0.875c0-0.482,0.392-0.875,0.875-0.875l4.22,0.005l0.106,0.011c0.044,0.008,0.087,0.021,0.159,0.044
	c0.044,0.017,0.086,0.038,0.15,0.073C6.708,5.224,6.745,5.253,6.801,5.3c0.038,0.035,0.072,0.073,0.113,0.126
	C6.961,5.49,6.996,5.552,7.034,5.643l1.357,2.933h22.045c0.272,0,0.323,0.082,0.341,0.114C31.025,9.101,30.611,10.483,30.056,11.54z
	 M14.438,22.406c-1.568,0-2.843,1.275-2.843,2.843s1.275,2.843,2.843,2.843c1.567,0,2.842-1.275,2.842-2.843
	S16.005,22.406,14.438,22.406z M14.438,27.064c-1.002,0-1.816-0.814-1.816-1.815s0.814-1.816,1.816-1.816
	c1.001,0,1.816,0.815,1.816,1.816S15.438,27.064,14.438,27.064z M24.293,22.406c-1.568,0-2.844,1.275-2.844,2.843
	s1.276,2.843,2.844,2.843c1.567,0,2.842-1.275,2.842-2.843S25.861,22.406,24.293,22.406z M24.293,27.064
	c-1.002,0-1.817-0.814-1.817-1.815s0.814-1.816,1.817-1.816c1.001,0,1.816,0.815,1.816,1.816S25.294,27.064,24.293,27.064z"></path>
  </g>
  <g id="credit-card" data-iconmelon="e-commerce icons:c3144b166f93e0f6b73aee04a0a48397">
    <path d="M29.018,4.751H2.981C1.337,4.751,0,6.089,0,7.733v16.534c0,1.644,1.337,2.981,2.981,2.981h26.036
	c1.645,0,2.982-1.338,2.982-2.981V7.733C32,6.089,30.662,4.751,29.018,4.751z M30.638,24.267c0,0.893-0.727,1.62-1.621,1.62H2.981
	c-0.893,0-1.62-0.727-1.62-1.62V13.603h29.276V24.267z M30.638,10.236H1.362V7.733c0-0.894,0.727-1.62,1.62-1.62h26.036
	c0.894,0,1.621,0.727,1.621,1.62V10.236z M8.848,22.494H2.724v1.338h6.124V22.494z M19.043,22.494H9.548v1.338h9.495V22.494z"></path>
  </g>
  <g id="shipping" data-iconmelon="e-commerce icons:7a09c8822d3657a6083e1b7e5626a3bc">
    <path d="M0.526,21.124c-0.135,0.41-0.021,0.695,0.39,0.832l12.01,3.904c0.048,0.016,0.097,0.025,0.146,0.033
	c0-0.543,0.092-0.657,0.259-1.143L1.408,20.875C0.998,20.739,0.662,20.714,0.526,21.124z M11.102,11.258l-6.099,2.004l3.604,5.313
	l0.64-1.876l3.754,1.281l1.217-3.565l-3.755-1.28L11.102,11.258z M12.76,15.132l-0.475,1.392l-3.755-1.282l-0.268,0.783
	l-1.456-2.147l2.465-0.81l-0.268,0.783L12.76,15.132z M31.978,8.132c-0.073-0.426-0.385-0.479-0.811-0.405l-8.361,1.397
	l-0.243,0.791h0l-3.872,11.701c0.491,0.089,0.713,0.159,1.14,0.387l3.875-11.706l7.825-1.464C31.956,8.76,32.051,8.559,31.978,8.132
	z M17.833,22.798c-1.934,0-3.501,1.566-3.501,3.501c0,1.934,1.567,3.501,3.501,3.501s3.501-1.567,3.501-3.501
	C21.334,24.364,19.767,22.798,17.833,22.798z M17.833,28.786c-1.374,0-2.487-1.113-2.487-2.487c0-1.373,1.113-2.487,2.487-2.487
	c1.374,0,2.487,1.114,2.487,2.487C20.319,27.673,19.206,28.786,17.833,28.786z M16.594,21.693l0.303-0.077l4.701-14.007L14.08,5.098
	l-1.447,4.317l-1.457-0.5l1.409-4.316L5.408,2.2L0,18.424l14.289,4.784l0.252-0.276C15.094,22.324,15.804,21.896,16.594,21.693z
	 M13.958,21.887L1.452,17.699L6.134,3.653l5.005,1.673l-1.405,4.31l3.622,1.24l1.448-4.326l5.34,1.784l-4.14,12.335
	C15.238,20.915,14.541,21.33,13.958,21.887z M17.832,25.505c-0.437,0-0.791,0.354-0.791,0.79s0.354,0.791,0.791,0.791
	s0.791-0.354,0.791-0.791S18.269,25.505,17.832,25.505z"></path>
  </g>
  <g id="money" data-iconmelon="e-commerce icons:7f58faae40137e86b0d0b039cd184623">
    <path d="M16,0C7.177,0,0,7.178,0,16s7.177,16,16,16c8.822,0,16-7.178,16-16S24.822,0,16,0z M16,30.589
	C7.956,30.589,1.411,24.045,1.411,16C1.411,7.956,7.956,1.411,16,1.411c8.045,0,14.589,6.545,14.589,14.589
	C30.589,24.045,24.045,30.589,16,30.589z M16,4.396C9.601,4.396,4.396,9.601,4.396,16c0,6.398,5.205,11.604,11.604,11.604
	c6.398,0,11.604-5.206,11.604-11.604C27.604,9.601,22.398,4.396,16,4.396z M16,26.193c-5.62,0-10.193-4.572-10.193-10.193
	C5.807,10.38,10.38,5.806,16,5.806S26.193,10.38,26.193,16C26.193,21.621,21.62,26.193,16,26.193z M17.096,14.979
	c-0.134-0.03-0.268-0.059-0.401-0.087v-2.431c0.486,0.174,0.849,0.532,0.977,1.207h2.21c-0.207-1.944-1.563-2.835-3.187-3.05V9.247
	h-1.393v1.338c-1.631,0.138-3.441,0.892-3.441,2.868c0,2.053,1.522,2.64,3.082,2.992c0.12,0.028,0.239,0.055,0.359,0.081v2.867
	c-0.818-0.157-1.425-0.648-1.529-1.697h-2.117c0.051,2.18,1.535,3.303,3.646,3.482v1.513h1.393v-1.523
	c1.761-0.208,3.502-1.146,3.502-3.237C20.196,15.937,18.637,15.35,17.096,14.979z M15.302,14.56
	c-0.771-0.231-1.325-0.555-1.325-1.204c0-0.703,0.722-0.941,1.325-1.01V14.56z M16.694,19.398v-2.536
	c0.78,0.232,1.353,0.561,1.386,1.265C18.12,18.966,17.403,19.285,16.694,19.398z"></path>
  </g>
  <g id="message" data-iconmelon="e-commerce icons:0be2865a095555bdd02c3863641ae030">
    <path d="M21.501,2.309H10.499C4.71,2.309,0,6.928,0,12.717c0,5.789,4.71,10.499,10.499,10.499h4.762l6.788,6.476l0.021-6.481
	C27.694,23.021,32,18.386,32,12.717C32,6.928,27.29,2.309,21.501,2.309z M21.501,22.057h-0.594l0.021,4.848l-5.204-4.848h-5.226
	c-5.15,0-9.34-4.189-9.34-9.339c0-5.15,4.189-9.25,9.34-9.25h11.002c5.15,0,9.34,4.099,9.34,9.25
	C30.841,17.867,26.651,22.057,21.501,22.057z M7.592,11.005h16.792v-1.16H7.592V11.005z M7.592,15.067h8.698v-1.159H7.592V15.067z"></path>
  </g>
  <g id="like" data-iconmelon="e-commerce icons:c1a2f75012da3876c0d62896144f5294">
    <path d="M31.238,18.526c0.344-0.438,0.739-1.165,0.761-2.209c0.061-2.938-2.753-3.924-4.299-4.037h-4.721l-0.066-0.004
	c-0.191-0.414,0.106-0.872,0.103-0.872c0,0,0,0,0,0.001c0.062-0.077,1.562-1.91,2.572-4.906c1.12-3.325-1.752-5.679-1.875-5.777
	l-0.167-0.099c-0.111-0.045-1.111-0.431-2.058,0.126c-0.723,0.426-1.16,1.249-1.301,2.449c-0.326,2.789-2.667,5.125-3.759,5.981
	c-0.154,0.12-0.277,0.217-0.36,0.29c-0.796,0.688-1.586,2.489-2.184,3.715c-0.4,0.82-1.498,2.139-2.062,2.625
	c-0.385,0.009-1.146,0.022-1.653,0.025C9.976,15.223,9.409,14.5,8.735,14.5H1.511C0.678,14.5,0,15.177,0,16.01v14.006
	c0,0.833,0.678,1.511,1.511,1.511h7.225c0.734,0,1.347-0.528,1.48-1.225c0.26-0.011,0.496-0.254,0.633-0.235
	c0.188,0.204,0.61,1,1.646,1.419l0.122,0.05h0.132c0.082,0,4.855,0.014,9.185,0.014c2.184,0,4.082-0.003,4.855-0.014
	c1.4-0.019,2.127-0.633,2.491-1.145c0.705-0.99,0.72-2.118,0.592-2.791c0.915-0.843,1.022-2.361,1.046-2.992
	c0.021-0.563-0.117-0.966-0.303-1.371c0.515-0.466,1.035-1.379,1.107-2.539C31.784,19.686,31.509,18.973,31.238,18.526z
	 M8.881,30.016c0,0.081-0.065,0.146-0.146,0.146H1.511c-0.081,0-0.146-0.065-0.146-0.146V16.01c0-0.08,0.065-0.146,0.146-0.146
	h7.225c0.08,0,0.146,0.065,0.146,0.146V30.016z M29.941,17.924l-0.676,0.497l0.619,0.57c0.022,0.021,0.544,0.514,0.476,1.623
	c-0.077,1.267-0.937,1.807-0.945,1.811l-0.987,0.412l0.793,0.702c0.065,0.075,0.39,0.468,0.327,1.121
	c-0.054,0.557-0.258,1.692-0.852,2.146l-0.773,0.296l0.541,0.462c0.138,0.413,0.162,1.394-0.296,2.037
	c-0.266,0.375-0.723,0.562-1.396,0.57c-2.168,0.029-12.532,0.004-13.885,0.001c-0.429-0.183-0.86-0.405-1.002-0.519
	c-0.119-0.214-0.444-1.004-1.671-0.965v-11.49c0.721-0.005,1.877-0.03,1.877-0.03l0.235-0.005l0.181-0.147
	c0.079-0.063,1.933-1.857,2.604-3.232c0.642-1.317,1.303-2.81,1.848-3.281c0.072-0.062,0.179-0.145,0.311-0.249
	c1.121-0.878,3.881-3.543,4.272-6.896c0.087-0.737,0.305-1.23,0.631-1.428c0.278-0.167,0.618-0.109,0.771-0.069
	c0.403,0.365,2.077,2.046,1.351,4.203c-0.924,2.745-2.317,4.457-2.36,4.511c-0.347,0.486-0.759,1.571-0.104,2.552
	c0.297,0.447,0.812,0.56,1.192,0.519l4.625-0.002c0.124,0.01,3.035,0.271,2.987,2.647C30.611,17.402,29.961,17.908,29.941,17.924z"></path>
  </g>
  <g id="calculator" data-iconmelon="e-commerce icons:da8e51b9071c08f04fafeb4eaf41cf1b">
    <path d="M12.839,24.367H10.78c-0.36,0-0.651,0.292-0.651,0.652v2.186c0,0.36,0.291,0.652,0.651,0.652h2.059
	c0.36,0,0.652-0.292,0.652-0.652V25.02C13.491,24.659,13.199,24.367,12.839,24.367z M7.363,14.642H5.178
	c-0.36,0-0.652,0.292-0.652,0.652v2.187c0,0.359,0.292,0.652,0.652,0.652h2.186c0.36,0,0.652-0.293,0.652-0.652v-2.187
	C8.016,14.934,7.724,14.642,7.363,14.642z M12.839,19.504H10.78c-0.36,0-0.651,0.293-0.651,0.653v2.186
	c0,0.36,0.291,0.652,0.651,0.652h2.059c0.36,0,0.652-0.292,0.652-0.652v-2.186C13.491,19.797,13.199,19.504,12.839,19.504z
	 M7.363,24.367H5.178c-0.36,0-0.652,0.292-0.652,0.652v2.186c0,0.36,0.292,0.652,0.652,0.652h2.186c0.36,0,0.652-0.292,0.652-0.652
	V25.02C8.016,24.659,7.724,24.367,7.363,24.367z M7.189,12.522h9.273c1.468,0,2.661-1.162,2.661-2.591V6.777
	c0-1.428-1.193-2.59-2.661-2.59H7.189c-1.467,0-2.661,1.162-2.661,2.59v3.154C4.528,11.36,5.723,12.522,7.189,12.522z M5.918,6.777
	c0-0.662,0.57-1.201,1.271-1.201h9.273c0.701,0,1.271,0.539,1.271,1.201v3.154c0,0.663-0.57,1.201-1.271,1.201H7.189
	c-0.701,0-1.271-0.538-1.271-1.201V6.777z M7.363,19.504H5.178c-0.36,0-0.652,0.293-0.652,0.653v2.186
	c0,0.36,0.292,0.652,0.652,0.652h2.186c0.36,0,0.652-0.292,0.652-0.652v-2.186C8.016,19.797,7.724,19.504,7.363,19.504z M19.619,0
	H4.013C2.007,0,0.375,1.631,0.375,3.637v24.726C0.375,30.368,2.007,32,4.013,32h15.606c2.006,0,3.637-1.632,3.637-3.638V3.637
	C23.256,1.631,21.625,0,19.619,0z M21.896,28.362c0,1.239-1.038,2.248-2.277,2.248H4.013c-1.24,0-2.277-1.009-2.277-2.248V3.637
	c0-1.24,1.037-2.248,2.277-2.248h15.606c1.239,0,2.277,1.008,2.277,2.248V28.362z M18.479,14.642h-2.187
	c-0.36,0-0.652,0.292-0.652,0.652v2.187c0,0.359,0.292,0.652,0.652,0.652h2.187c0.359,0,0.652-0.293,0.652-0.652v-2.187
	C19.131,14.934,18.838,14.642,18.479,14.642z M28.583,4.87h-4.577v1.39h4.577c0.911,0,1.652,0.741,1.652,1.653v0.481h-6.229v3.435
	h6.229v3.909c0,0.911-0.741,1.652-1.652,1.652h-4.577v1.39h4.577c1.677,0,3.042-1.364,3.042-3.042V7.913
	C31.625,6.235,30.26,4.87,28.583,4.87z M18.479,24.367h-2.187c-0.36,0-0.652,0.292-0.652,0.652v2.186
	c0,0.36,0.292,0.652,0.652,0.652h2.187c0.359,0,0.652-0.292,0.652-0.652V25.02C19.131,24.659,18.838,24.367,18.479,24.367z
	 M18.479,19.504h-2.187c-0.36,0-0.652,0.293-0.652,0.653v2.186c0,0.36,0.292,0.652,0.652,0.652h2.187
	c0.359,0,0.652-0.292,0.652-0.652v-2.186C19.131,19.797,18.838,19.504,18.479,19.504z M12.839,14.642H10.78
	c-0.36,0-0.651,0.292-0.651,0.652v2.187c0,0.359,0.291,0.652,0.651,0.652h2.059c0.36,0,0.652-0.293,0.652-0.652v-2.187
	C13.491,14.934,13.199,14.642,12.839,14.642z"></path>
  </g>
</svg>