<svg id="svg-source" height="0" version="1.1" 
  xmlns="http://www.w3.org/2000/svg" style="position:absolute; margin-left: -100%" 
  xmlns:xlink="http://www.w3.org/1999/xlink">
  <g id="shopping-cart" data-iconmelon="e-commerce icons:002d682c4fcf689621a3aaee07352d34">
    <path d="M31.769,8.092c-0.186-0.308-0.568-0.674-1.333-0.674H9.131L8.096,5.185c-0.062-0.153-0.145-0.303-0.27-0.469
	C7.754,4.619,7.674,4.53,7.543,4.413c-0.085-0.074-0.174-0.142-0.269-0.2L7.223,4.184C7.127,4.129,7.028,4.08,6.926,4.042
	L6.858,4.02c-0.1-0.033-0.201-0.062-0.306-0.079L6.407,3.924C6.343,3.915,6.278,3.908,6.212,3.908h-4.18C0.912,3.908,0,4.819,0,5.94
	s0.912,2.033,2.032,2.033h2.876l1.162,2.512c0.284,0.831,0.683,1.548,0.685,1.548l2.871,6.445c0.024,0.052,0.052,0.1,0.093,0.163
	l0.535,1.14c0.206,0.673,0.74,1.183,1.396,1.37l-0.006,0.088h13.949l0.639-0.012l-0.008-0.08c0.649-0.19,1.177-0.698,1.382-1.366
	l3.487-7.725C31.331,11.603,32.486,9.281,31.769,8.092z M30.056,11.54l-3.309,7.346l-0.092-0.023l-0.148,0.549
	c-0.104,0.388-0.456,0.659-0.893,0.659c-0.002,0-0.004-0.001-0.006-0.001l-0.659-0.02l0.002,0.031H12.837l-0.624-0.009
	c-0.402,0-0.756-0.271-0.861-0.66l-0.15-0.549l-0.089,0.022l-3.329-7.383c-0.003-0.006-0.377-0.677-0.626-1.418l-1.509-3.27H2.032
	c-0.482,0-0.875-0.392-0.875-0.875c0-0.482,0.392-0.875,0.875-0.875l4.22,0.005l0.106,0.011c0.044,0.008,0.087,0.021,0.159,0.044
	c0.044,0.017,0.086,0.038,0.15,0.073C6.708,5.224,6.745,5.253,6.801,5.3c0.038,0.035,0.072,0.073,0.113,0.126
	C6.961,5.49,6.996,5.552,7.034,5.643l1.357,2.933h22.045c0.272,0,0.323,0.082,0.341,0.114C31.025,9.101,30.611,10.483,30.056,11.54z
	 M14.438,22.406c-1.568,0-2.843,1.275-2.843,2.843s1.275,2.843,2.843,2.843c1.567,0,2.842-1.275,2.842-2.843
	S16.005,22.406,14.438,22.406z M14.438,27.064c-1.002,0-1.816-0.814-1.816-1.815s0.814-1.816,1.816-1.816
	c1.001,0,1.816,0.815,1.816,1.816S15.438,27.064,14.438,27.064z M24.293,22.406c-1.568,0-2.844,1.275-2.844,2.843
	s1.276,2.843,2.844,2.843c1.567,0,2.842-1.275,2.842-2.843S25.861,22.406,24.293,22.406z M24.293,27.064
	c-1.002,0-1.817-0.814-1.817-1.815s0.814-1.816,1.817-1.816c1.001,0,1.816,0.815,1.816,1.816S25.294,27.064,24.293,27.064z"></path>
  </g>
  <g id="credit-card" data-iconmelon="e-commerce icons:c3144b166f93e0f6b73aee04a0a48397">
    <path d="M29.018,4.751H2.981C1.337,4.751,0,6.089,0,7.733v16.534c0,1.644,1.337,2.981,2.981,2.981h26.036
	c1.645,0,2.982-1.338,2.982-2.981V7.733C32,6.089,30.662,4.751,29.018,4.751z M30.638,24.267c0,0.893-0.727,1.62-1.621,1.62H2.981
	c-0.893,0-1.62-0.727-1.62-1.62V13.603h29.276V24.267z M30.638,10.236H1.362V7.733c0-0.894,0.727-1.62,1.62-1.62h26.036
	c0.894,0,1.621,0.727,1.621,1.62V10.236z M8.848,22.494H2.724v1.338h6.124V22.494z M19.043,22.494H9.548v1.338h9.495V22.494z"></path>
  </g>
  <g id="shipping" data-iconmelon="e-commerce icons:7a09c8822d3657a6083e1b7e5626a3bc">
    <path d="M0.526,21.124c-0.135,0.41-0.021,0.695,0.39,0.832l12.01,3.904c0.048,0.016,0.097,0.025,0.146,0.033
	c0-0.543,0.092-0.657,0.259-1.143L1.408,20.875C0.998,20.739,0.662,20.714,0.526,21.124z M11.102,11.258l-6.099,2.004l3.604,5.313
	l0.64-1.876l3.754,1.281l1.217-3.565l-3.755-1.28L11.102,11.258z M12.76,15.132l-0.475,1.392l-3.755-1.282l-0.268,0.783
	l-1.456-2.147l2.465-0.81l-0.268,0.783L12.76,15.132z M31.978,8.132c-0.073-0.426-0.385-0.479-0.811-0.405l-8.361,1.397
	l-0.243,0.791h0l-3.872,11.701c0.491,0.089,0.713,0.159,1.14,0.387l3.875-11.706l7.825-1.464C31.956,8.76,32.051,8.559,31.978,8.132
	z M17.833,22.798c-1.934,0-3.501,1.566-3.501,3.501c0,1.934,1.567,3.501,3.501,3.501s3.501-1.567,3.501-3.501
	C21.334,24.364,19.767,22.798,17.833,22.798z M17.833,28.786c-1.374,0-2.487-1.113-2.487-2.487c0-1.373,1.113-2.487,2.487-2.487
	c1.374,0,2.487,1.114,2.487,2.487C20.319,27.673,19.206,28.786,17.833,28.786z M16.594,21.693l0.303-0.077l4.701-14.007L14.08,5.098
	l-1.447,4.317l-1.457-0.5l1.409-4.316L5.408,2.2L0,18.424l14.289,4.784l0.252-0.276C15.094,22.324,15.804,21.896,16.594,21.693z
	 M13.958,21.887L1.452,17.699L6.134,3.653l5.005,1.673l-1.405,4.31l3.622,1.24l1.448-4.326l5.34,1.784l-4.14,12.335
	C15.238,20.915,14.541,21.33,13.958,21.887z M17.832,25.505c-0.437,0-0.791,0.354-0.791,0.79s0.354,0.791,0.791,0.791
	s0.791-0.354,0.791-0.791S18.269,25.505,17.832,25.505z"></path>
  </g>
  <g id="money" data-iconmelon="e-commerce icons:7f58faae40137e86b0d0b039cd184623">
    <path d="M16,0C7.177,0,0,7.178,0,16s7.177,16,16,16c8.822,0,16-7.178,16-16S24.822,0,16,0z M16,30.589
	C7.956,30.589,1.411,24.045,1.411,16C1.411,7.956,7.956,1.411,16,1.411c8.045,0,14.589,6.545,14.589,14.589
	C30.589,24.045,24.045,30.589,16,30.589z M16,4.396C9.601,4.396,4.396,9.601,4.396,16c0,6.398,5.205,11.604,11.604,11.604
	c6.398,0,11.604-5.206,11.604-11.604C27.604,9.601,22.398,4.396,16,4.396z M16,26.193c-5.62,0-10.193-4.572-10.193-10.193
	C5.807,10.38,10.38,5.806,16,5.806S26.193,10.38,26.193,16C26.193,21.621,21.62,26.193,16,26.193z M17.096,14.979
	c-0.134-0.03-0.268-0.059-0.401-0.087v-2.431c0.486,0.174,0.849,0.532,0.977,1.207h2.21c-0.207-1.944-1.563-2.835-3.187-3.05V9.247
	h-1.393v1.338c-1.631,0.138-3.441,0.892-3.441,2.868c0,2.053,1.522,2.64,3.082,2.992c0.12,0.028,0.239,0.055,0.359,0.081v2.867
	c-0.818-0.157-1.425-0.648-1.529-1.697h-2.117c0.051,2.18,1.535,3.303,3.646,3.482v1.513h1.393v-1.523
	c1.761-0.208,3.502-1.146,3.502-3.237C20.196,15.937,18.637,15.35,17.096,14.979z M15.302,14.56
	c-0.771-0.231-1.325-0.555-1.325-1.204c0-0.703,0.722-0.941,1.325-1.01V14.56z M16.694,19.398v-2.536
	c0.78,0.232,1.353,0.561,1.386,1.265C18.12,18.966,17.403,19.285,16.694,19.398z"></path>
  </g>
  <g id="message" data-iconmelon="e-commerce icons:0be2865a095555bdd02c3863641ae030">
    <path d="M21.501,2.309H10.499C4.71,2.309,0,6.928,0,12.717c0,5.789,4.71,10.499,10.499,10.499h4.762l6.788,6.476l0.021-6.481
	C27.694,23.021,32,18.386,32,12.717C32,6.928,27.29,2.309,21.501,2.309z M21.501,22.057h-0.594l0.021,4.848l-5.204-4.848h-5.226
	c-5.15,0-9.34-4.189-9.34-9.339c0-5.15,4.189-9.25,9.34-9.25h11.002c5.15,0,9.34,4.099,9.34,9.25
	C30.841,17.867,26.651,22.057,21.501,22.057z M7.592,11.005h16.792v-1.16H7.592V11.005z M7.592,15.067h8.698v-1.159H7.592V15.067z"></path>
  </g>
  <g id="like" data-iconmelon="e-commerce icons:c1a2f75012da3876c0d62896144f5294">
    <path d="M31.238,18.526c0.344-0.438,0.739-1.165,0.761-2.209c0.061-2.938-2.753-3.924-4.299-4.037h-4.721l-0.066-0.004
	c-0.191-0.414,0.106-0.872,0.103-0.872c0,0,0,0,0,0.001c0.062-0.077,1.562-1.91,2.572-4.906c1.12-3.325-1.752-5.679-1.875-5.777
	l-0.167-0.099c-0.111-0.045-1.111-0.431-2.058,0.126c-0.723,0.426-1.16,1.249-1.301,2.449c-0.326,2.789-2.667,5.125-3.759,5.981
	c-0.154,0.12-0.277,0.217-0.36,0.29c-0.796,0.688-1.586,2.489-2.184,3.715c-0.4,0.82-1.498,2.139-2.062,2.625
	c-0.385,0.009-1.146,0.022-1.653,0.025C9.976,15.223,9.409,14.5,8.735,14.5H1.511C0.678,14.5,0,15.177,0,16.01v14.006
	c0,0.833,0.678,1.511,1.511,1.511h7.225c0.734,0,1.347-0.528,1.48-1.225c0.26-0.011,0.496-0.254,0.633-0.235
	c0.188,0.204,0.61,1,1.646,1.419l0.122,0.05h0.132c0.082,0,4.855,0.014,9.185,0.014c2.184,0,4.082-0.003,4.855-0.014
	c1.4-0.019,2.127-0.633,2.491-1.145c0.705-0.99,0.72-2.118,0.592-2.791c0.915-0.843,1.022-2.361,1.046-2.992
	c0.021-0.563-0.117-0.966-0.303-1.371c0.515-0.466,1.035-1.379,1.107-2.539C31.784,19.686,31.509,18.973,31.238,18.526z
	 M8.881,30.016c0,0.081-0.065,0.146-0.146,0.146H1.511c-0.081,0-0.146-0.065-0.146-0.146V16.01c0-0.08,0.065-0.146,0.146-0.146
	h7.225c0.08,0,0.146,0.065,0.146,0.146V30.016z M29.941,17.924l-0.676,0.497l0.619,0.57c0.022,0.021,0.544,0.514,0.476,1.623
	c-0.077,1.267-0.937,1.807-0.945,1.811l-0.987,0.412l0.793,0.702c0.065,0.075,0.39,0.468,0.327,1.121
	c-0.054,0.557-0.258,1.692-0.852,2.146l-0.773,0.296l0.541,0.462c0.138,0.413,0.162,1.394-0.296,2.037
	c-0.266,0.375-0.723,0.562-1.396,0.57c-2.168,0.029-12.532,0.004-13.885,0.001c-0.429-0.183-0.86-0.405-1.002-0.519
	c-0.119-0.214-0.444-1.004-1.671-0.965v-11.49c0.721-0.005,1.877-0.03,1.877-0.03l0.235-0.005l0.181-0.147
	c0.079-0.063,1.933-1.857,2.604-3.232c0.642-1.317,1.303-2.81,1.848-3.281c0.072-0.062,0.179-0.145,0.311-0.249
	c1.121-0.878,3.881-3.543,4.272-6.896c0.087-0.737,0.305-1.23,0.631-1.428c0.278-0.167,0.618-0.109,0.771-0.069
	c0.403,0.365,2.077,2.046,1.351,4.203c-0.924,2.745-2.317,4.457-2.36,4.511c-0.347,0.486-0.759,1.571-0.104,2.552
	c0.297,0.447,0.812,0.56,1.192,0.519l4.625-0.002c0.124,0.01,3.035,0.271,2.987,2.647C30.611,17.402,29.961,17.908,29.941,17.924z"></path>
  </g>
  <g id="calculator" data-iconmelon="e-commerce icons:da8e51b9071c08f04fafeb4eaf41cf1b">
    <path d="M12.839,24.367H10.78c-0.36,0-0.651,0.292-0.651,0.652v2.186c0,0.36,0.291,0.652,0.651,0.652h2.059
	c0.36,0,0.652-0.292,0.652-0.652V25.02C13.491,24.659,13.199,24.367,12.839,24.367z M7.363,14.642H5.178
	c-0.36,0-0.652,0.292-0.652,0.652v2.187c0,0.359,0.292,0.652,0.652,0.652h2.186c0.36,0,0.652-0.293,0.652-0.652v-2.187
	C8.016,14.934,7.724,14.642,7.363,14.642z M12.839,19.504H10.78c-0.36,0-0.651,0.293-0.651,0.653v2.186
	c0,0.36,0.291,0.652,0.651,0.652h2.059c0.36,0,0.652-0.292,0.652-0.652v-2.186C13.491,19.797,13.199,19.504,12.839,19.504z
	 M7.363,24.367H5.178c-0.36,0-0.652,0.292-0.652,0.652v2.186c0,0.36,0.292,0.652,0.652,0.652h2.186c0.36,0,0.652-0.292,0.652-0.652
	V25.02C8.016,24.659,7.724,24.367,7.363,24.367z M7.189,12.522h9.273c1.468,0,2.661-1.162,2.661-2.591V6.777
	c0-1.428-1.193-2.59-2.661-2.59H7.189c-1.467,0-2.661,1.162-2.661,2.59v3.154C4.528,11.36,5.723,12.522,7.189,12.522z M5.918,6.777
	c0-0.662,0.57-1.201,1.271-1.201h9.273c0.701,0,1.271,0.539,1.271,1.201v3.154c0,0.663-0.57,1.201-1.271,1.201H7.189
	c-0.701,0-1.271-0.538-1.271-1.201V6.777z M7.363,19.504H5.178c-0.36,0-0.652,0.293-0.652,0.653v2.186
	c0,0.36,0.292,0.652,0.652,0.652h2.186c0.36,0,0.652-0.292,0.652-0.652v-2.186C8.016,19.797,7.724,19.504,7.363,19.504z M19.619,0
	H4.013C2.007,0,0.375,1.631,0.375,3.637v24.726C0.375,30.368,2.007,32,4.013,32h15.606c2.006,0,3.637-1.632,3.637-3.638V3.637
	C23.256,1.631,21.625,0,19.619,0z M21.896,28.362c0,1.239-1.038,2.248-2.277,2.248H4.013c-1.24,0-2.277-1.009-2.277-2.248V3.637
	c0-1.24,1.037-2.248,2.277-2.248h15.606c1.239,0,2.277,1.008,2.277,2.248V28.362z M18.479,14.642h-2.187
	c-0.36,0-0.652,0.292-0.652,0.652v2.187c0,0.359,0.292,0.652,0.652,0.652h2.187c0.359,0,0.652-0.293,0.652-0.652v-2.187
	C19.131,14.934,18.838,14.642,18.479,14.642z M28.583,4.87h-4.577v1.39h4.577c0.911,0,1.652,0.741,1.652,1.653v0.481h-6.229v3.435
	h6.229v3.909c0,0.911-0.741,1.652-1.652,1.652h-4.577v1.39h4.577c1.677,0,3.042-1.364,3.042-3.042V7.913
	C31.625,6.235,30.26,4.87,28.583,4.87z M18.479,24.367h-2.187c-0.36,0-0.652,0.292-0.652,0.652v2.186
	c0,0.36,0.292,0.652,0.652,0.652h2.187c0.359,0,0.652-0.292,0.652-0.652V25.02C19.131,24.659,18.838,24.367,18.479,24.367z
	 M18.479,19.504h-2.187c-0.36,0-0.652,0.293-0.652,0.653v2.186c0,0.36,0.292,0.652,0.652,0.652h2.187
	c0.359,0,0.652-0.292,0.652-0.652v-2.186C19.131,19.797,18.838,19.504,18.479,19.504z M12.839,14.642H10.78
	c-0.36,0-0.651,0.292-0.651,0.652v2.187c0,0.359,0.291,0.652,0.651,0.652h2.059c0.36,0,0.652-0.293,0.652-0.652v-2.187
	C13.491,14.934,13.199,14.642,12.839,14.642z"></path>
  </g>
  <g id="instagram1" data-iconmelon="Flat Social Icons:39303518cc8a9ce85bae15b2e6037450">
    <g>
      <polygon points="22.15,12.555 22.15,10.196 22.15,9.843 21.797,9.845 19.438,9.852 19.447,12.564 	"></polygon>
      <path d="M16.002,18.815c1.553,0,2.816-1.263,2.816-2.815c0-0.614-0.199-1.18-0.533-1.643
		c-0.512-0.709-1.344-1.174-2.283-1.174s-1.771,0.465-2.283,1.174c-0.333,0.463-0.533,1.029-0.533,1.643
		C13.186,17.553,14.449,18.815,16.002,18.815z"></path>
      <path d="M16,0C7.162,0,0,7.164,0,16s7.162,16,16,16c8.837,0,16-7.164,16-16S24.837,0,16,0z M24.002,14.357v6.55
		c0,1.705-1.388,3.092-3.093,3.092h-9.815c-1.705,0-3.092-1.387-3.092-3.092v-6.55v-3.265C8.002,9.387,9.389,8,11.094,8h9.815
		c1.705,0,3.093,1.387,3.093,3.092V14.357z"></path>
      <path d="M20.377,16c0,2.413-1.963,4.375-4.375,4.375S11.627,18.413,11.627,16c0-0.581,0.116-1.135,0.322-1.643
		H9.561v6.55c0,0.846,0.688,1.533,1.533,1.533h9.815c0.847,0,1.534-0.687,1.534-1.533v-6.55h-2.389
		C20.26,14.865,20.377,15.419,20.377,16z"></path>
    </g>
  </g>
  <g id="youtube1" data-iconmelon="Flat Social Icons:ae51022a3ad2fc6c00a29d6f7454ccbf">
    <g>
      <polygon points="13.868,19.084 19.106,16.008 13.868,12.931 	"></polygon>
      <path d="M16,0C7.163,0,0,7.164,0,16c0,8.836,7.163,16,16,16c8.836,0,16-7.164,16-16C32,7.164,24.836,0,16,0z
		 M24,18.86c0,2.757-2.758,2.757-2.758,2.757H10.756C8,21.617,8,18.86,8,18.86V13.14c0-2.757,2.756-2.757,2.756-2.757h10.486
		C24,10.382,24,13.14,24,13.14V18.86z"></path>
    </g>
  </g>
  <g id="facebook1" data-iconmelon="Flat Social Icons:05a5948ba66490483129c2bcdaa481f1">
    <path d="M16,0C7.163,0,0,7.164,0,16c0,8.837,7.163,16,16,16s16-7.163,16-16C32,7.164,24.836,0,16,0z M19.532,13.291
	l-0.184,2.394h-2.454V24h-3.101v-8.315H12.14v-2.394h1.654v-1.608c0-0.708,0.018-1.802,0.533-2.479C14.869,8.487,15.614,8,16.895,8
	c2.087,0,2.965,0.298,2.965,0.298l-0.414,2.451c0,0-0.689-0.2-1.332-0.2c-0.644,0-1.22,0.231-1.22,0.874v1.869H19.532z"></path>
  </g>
  <g id="twitter1" data-iconmelon="Flat Social Icons:26b05726b10222fa77dc99e12fd47da2">
    <path d="M16,0C7.164,0,0,7.164,0,16c0,8.837,7.164,16,16,16c8.837,0,16-7.163,16-16C32,7.164,24.837,0,16,0z
	 M22.373,13.511c0.006,0.14,0.009,0.283,0.009,0.425c0,4.346-3.306,9.355-9.355,9.355c-1.856,0-3.585-0.544-5.04-1.477
	c0.257,0.031,0.52,0.045,0.784,0.045c1.54,0,2.958-0.525,4.084-1.408c-1.439-0.025-2.653-0.977-3.071-2.282
	c0.2,0.039,0.406,0.059,0.618,0.059c0.301,0,0.591-0.039,0.866-0.116c-1.505-0.301-2.639-1.63-2.639-3.224v-0.041
	c0.445,0.245,0.952,0.394,1.49,0.411c-0.882-0.59-1.462-1.597-1.462-2.737c0-0.603,0.161-1.167,0.444-1.655
	c1.623,1.991,4.046,3.299,6.778,3.436c-0.058-0.24-0.085-0.491-0.085-0.749c0-1.815,1.472-3.288,3.287-3.288
	c0.946,0,1.802,0.399,2.399,1.038c0.751-0.147,1.454-0.42,2.09-0.797c-0.244,0.768-0.767,1.411-1.446,1.818
	c0.665-0.08,1.299-0.256,1.889-0.518C23.575,12.468,23.016,13.047,22.373,13.511z"></path>
  </g>
  <g id="flickr1" data-iconmelon="Flat Social Icons:cdef6e95be364ec0c79e47e1545c9a1d">
    <path d="M16.001,0.001C7.164,0.001,0,7.164,0,16s7.164,15.999,16.001,15.999C24.836,31.999,32,24.836,32,16
	S24.836,0.001,16.001,0.001z M11.523,19.523C9.577,19.523,8,17.945,8,16c0-1.945,1.577-3.523,3.522-3.523
	c1.95,0,3.526,1.578,3.526,3.523C15.048,17.945,13.472,19.523,11.523,19.523z M20.477,19.523c-1.947,0-3.524-1.577-3.524-3.523
	s1.577-3.524,3.524-3.524C22.422,12.476,24,14.054,24,16S22.422,19.523,20.477,19.523z"></path>
  </g>
  <g id="google-plus1" data-iconmelon="Flat Social Icons:3769f7aef24d6a2de99b5c893b5d0bdb">
    <g>
      <path d="M15.765,11.719c-0.22-1.677-1.434-3.021-2.71-3.06s-2.133,1.244-1.912,2.922
		c0.22,1.676,1.434,3.065,2.71,3.104C15.129,14.723,15.985,13.395,15.765,11.719z"></path>
      <path d="M16,0C7.164,0,0,7.164,0,16s7.164,16,16,16s16-7.164,16-16S24.837,0,16,0z M13.363,23.958
		c-2.751,0-5.073-1.119-5.073-2.909c0-1.817,2.118-3.57,4.87-3.57c0.299,0,0.574-0.008,0.859-0.008
		c-0.376-0.366-0.675-0.815-0.675-1.369c0-0.327,0.105-0.646,0.252-0.925c-0.149,0.01-0.302,0.013-0.459,0.013
		c-2.26,0-3.774-1.607-3.774-3.6c0-1.949,2.091-3.632,4.312-3.632h4.956l-1.109,0.801h-1.571c1.042,0.401,1.598,1.616,1.598,2.862
		c0,1.047-0.581,1.947-1.4,2.588c-0.799,0.624-0.951,0.885-0.951,1.418c0,0.453,0.855,1.224,1.304,1.541
		c1.31,0.925,1.733,1.785,1.733,3.22C18.233,22.178,16.5,23.958,13.363,23.958z M23.709,16.384H21.78v1.93h-1.552v-1.93h-1.929
		v-1.553h1.929v-1.929h1.552v1.929h1.929V16.384z"></path>
      <path d="M14.917,18.137c-0.375-0.121-0.79-0.193-1.233-0.197c-1.902-0.021-3.606,1.159-3.606,2.577
		c0,1.445,1.374,2.648,3.276,2.648c2.674,0,3.605-1.129,3.605-2.575c0-0.175-0.021-0.345-0.061-0.511
		C16.689,19.261,15.948,18.855,14.917,18.137z"></path>
    </g>
  </g>
  <g id="search" data-iconmelon="Simple Line Icons:b2e5fb03378d9f557de22cf79d4a7dd3">
    <g>
      <path  d="M12.714,5.014c-2.057,0-3.987,0.803-5.441,2.256c-1.455,1.451-2.255,3.386-2.255,5.44
		c0,2.057,0.8,3.989,2.255,5.442c1.452,1.457,3.385,2.258,5.441,2.258c2.055,0,3.986-0.801,5.44-2.258c2.999-3,3.001-7.881,0-10.883
		C16.702,5.816,14.771,5.014,12.714,5.014z M17.171,17.169c-1.19,1.194-2.775,1.85-4.457,1.85c-1.686,0-3.27-0.655-4.458-1.85
		c-1.192-1.19-1.851-2.773-1.851-4.459c0-1.685,0.658-3.265,1.851-4.458c1.188-1.193,2.772-1.848,4.458-1.848
		s3.268,0.654,4.459,1.848C19.63,10.711,19.63,14.712,17.171,17.169z"></path>
      <path  d="M23.581,19.295c3.015-4.965,2.267-11.425-1.878-15.569C19.3,1.323,16.108,0,12.714,0
		S6.127,1.323,3.726,3.726C1.323,6.125,0.004,9.317,0.004,12.71c0,3.397,1.323,6.594,3.726,8.991
		c2.394,2.396,5.583,3.717,8.973,3.717c2.341,0,4.609-0.634,6.595-1.841l7.53,7.536C27.4,31.684,28.159,32,28.97,32
		c0.809,0,1.57-0.316,2.14-0.887c1.183-1.185,1.183-3.104,0-4.284L23.581,19.295z M30.128,30.129c-0.619,0.617-1.699,0.617-2.318,0
		l-8.329-8.332l-0.474,0.318c-1.865,1.252-4.048,1.916-6.305,1.916c-3.019,0-5.856-1.18-7.992-3.314
		c-2.139-2.137-3.315-4.979-3.315-8.007c0-3.021,1.176-5.863,3.313-8.003C6.849,2.57,9.69,1.388,12.714,1.388
		c3.024,0,5.866,1.183,8.007,3.319c3.811,3.811,4.397,9.822,1.396,14.295l-0.319,0.474l8.331,8.335
		C30.767,28.448,30.767,29.49,30.128,30.129z"></path>
    </g>
  </g>
</svg>